<svg id="LSL_color" xmlns="http://www.w3.org/2000/svg" width="100" height="37" viewBox="0 0 100 37">
  <rect id="container" width="96.305" height="35.172" transform="translate(0 0)" fill="#c1c1c1" opacity="0"/>
  <path id="패스_14636" data-name="패스 14636" d="M0,0V37H100l-.494-1.424H1.358V.749Z" transform="translate(0 0)" fill="#956c40"/>
  <g id="그룹_5440" data-name="그룹 5440" transform="translate(7.025 1.693)">
    <path id="패스_14637" data-name="패스 14637" d="M108.209,42.525h-1.294L103.05,53.153h1.484l2.974-8.776s.04-.137.072-.137.061.131.061.131L109.31,49.2h-2.981l.433,1.3H109.7l.862,2.658h1.452Z" transform="translate(-62.733 -24.428)" fill="#956c40"/>
    <rect id="사각형_2316" data-name="사각형 2316" width="1.339" height="10.628" transform="translate(0 18.097)" fill="#956c40"/>
    <path id="패스_14638" data-name="패스 14638" d="M19.1,63.975h4.82l-.493-1.3H19.1Z" transform="translate(-17.364 -35.241)" fill="#956c40"/>
    <path id="패스_14639" data-name="패스 14639" d="M197.682,53.167V42.723h3.861a3,3,0,0,1,2.195.76,2.747,2.747,0,0,1,.737,2,2.457,2.457,0,0,1-.29,1.211,2.064,2.064,0,0,1-.45.535,3.211,3.211,0,0,1-.723.476l-.131.056-.128.05.148.024.177.037a1.916,1.916,0,0,1,1.17.882,3,3,0,0,1,.386,1.489,2.892,2.892,0,0,1-.8,2.114,2.6,2.6,0,0,1-1.945.812Zm1.362-1.332h2.475a1.688,1.688,0,0,0,1.331-.522,1.755,1.755,0,0,0,.421-1.17,1.6,1.6,0,0,0-1.751-1.693c-.666-.057-1.577-.057-1.577-.057l-.465-1.151s.8.011,1.725-.036a2.488,2.488,0,0,0,1.479-.493,1.579,1.579,0,0,0,.428-1.131,1.661,1.661,0,0,0-.429-1.153,1.79,1.79,0,0,0-1.312-.462h-2.325Z" transform="translate(-113.889 -24.534)" fill="#956c40"/>
    <rect id="사각형_2317" data-name="사각형 2317" width="1.339" height="10.628" transform="translate(0 0.083)" fill="#956c40"/>
    <path id="패스_14640" data-name="패스 14640" d="M19.1,25.285h4.82l-.493-1.3H19.1Z" transform="translate(-17.364 -14.532)" fill="#956c40"/>
    <rect id="사각형_2318" data-name="사각형 2318" width="1.338" height="10.628" transform="translate(10.979 0.083)" fill="#956c40"/>
    <path id="패스_14641" data-name="패스 14641" d="M54.462,3.835h6.307V5.186H55.8V8.245h3.5l.739,1.306H55.8v4.913H54.462Z" transform="translate(-36.468 -3.752)" fill="#956c40"/>
    <path id="패스_14642" data-name="패스 14642" d="M78.192,3.835h6.323V5.186H79.545V8.251h3.5l.739,1.3H79.545v3.562h4.971v1.351H78.192Z" transform="translate(-49.296 -3.752)" fill="#956c40"/>
    <path id="패스_14643" data-name="패스 14643" d="M127.685,5.134h-2.9v-1.3h7.136v1.3h-2.9v9.329h-1.338Z" transform="translate(-74.484 -3.752)" fill="#956c40"/>
    <path id="패스_14644" data-name="패스 14644" d="M104.319,14.408a5.665,5.665,0,0,1-3.747-1.329l1.125-.821a4.656,4.656,0,0,0,2.641.8c1.444-.021,2.184-.578,2.2-1.655A1.528,1.528,0,0,0,105.066,9.8c-.424-.06-.883-.127-1.384-.2a3.232,3.232,0,0,1-1.958-.989,2.826,2.826,0,0,1-.687-1.918A2.915,2.915,0,0,1,101.9,4.5a3.329,3.329,0,0,1,2.4-.84,5.608,5.608,0,0,1,3.157,1l-.968.972a4.78,4.78,0,0,0-2.271-.618,2.06,2.06,0,0,0-1.306.411,1.581,1.581,0,0,0-.578,1.29,1.369,1.369,0,0,0,.389.951,2.119,2.119,0,0,0,1.2.58c.291.051.687.109,1.181.173a3.077,3.077,0,0,1,2.073,1.043,3.037,3.037,0,0,1,.663,1.939c-.051,2-1.2,2.988-3.516,3.017" transform="translate(-61.394 -3.656)" fill="#956c40"/>
    <path id="패스_14645" data-name="패스 14645" d="M197.037,3.835h6.323V5.186h-4.971V8.251h3.5l.739,1.3h-4.243v3.562h4.971v1.351h-6.323Z" transform="translate(-113.54 -3.752)" fill="#956c40"/>
    <rect id="사각형_2319" data-name="사각형 2319" width="1.339" height="10.628" transform="translate(72.547 0.083)" fill="#956c40"/>
    <path id="패스_14646" data-name="패스 14646" d="M177.01,25.285h4.82l-.493-1.3H177.01Z" transform="translate(-102.7 -14.532)" fill="#956c40"/>
    <path id="패스_14647" data-name="패스 14647" d="M148.575,3.791h-1.463l3.177,6.322v4.306h1.339V10.148Z" transform="translate(-86.557 -3.728)" fill="#956c40"/>
    <path id="패스_14648" data-name="패스 14648" d="M156.673,9.656,159.6,3.791H158.18l-2.148,4.5Z" transform="translate(-91.38 -3.728)" fill="#956c40"/>
  </g>
</svg>
